<svg width="17" height="17" viewBox="0 0 17 17" fill="none" xmlns="http://www.w3.org/2000/svg">
<mask id="path-1-inside-1_1_46" fill="white">
<path fill-rule="evenodd" clip-rule="evenodd" d="M12.6063 11.1923C13.4816 10.0237 14 8.57237 14 7C14 3.13401 10.866 0 7 0C3.13401 0 0 3.13401 0 7C0 10.866 3.13401 14 7 14C8.5723 14 10.0235 13.4816 11.1921 12.6064L15.142 16.5563L16.5562 15.1421L12.6063 11.1923Z"/>
</mask>
<path d="M12.6063 11.1923L11.0055 9.99331L9.96638 11.3807L11.1921 12.6065L12.6063 11.1923ZM11.1921 12.6064L12.6063 11.1922L11.3806 9.96654L9.99318 11.0056L11.1921 12.6064ZM15.142 16.5563L13.7278 17.9706L15.142 19.3848L16.5562 17.9706L15.142 16.5563ZM16.5562 15.1421L17.9704 16.5563L19.3846 15.1421L17.9704 13.7279L16.5562 15.1421ZM12 7C12 8.12544 11.6306 9.15881 11.0055 9.99331L14.2071 12.3912C15.3326 10.8885 16 9.01931 16 7H12ZM7 2C9.76142 2 12 4.23858 12 7H16C16 2.02944 11.9706 -2 7 -2V2ZM2 7C2 4.23858 4.23858 2 7 2V-2C2.02944 -2 -2 2.02944 -2 7H2ZM7 12C4.23858 12 2 9.76142 2 7H-2C-2 11.9706 2.02944 16 7 16V12ZM9.99318 11.0056C9.1587 11.6306 8.12538 12 7 12V16C9.01921 16 10.8883 15.3327 12.391 14.2073L9.99318 11.0056ZM16.5562 15.1421L12.6063 11.1922L9.77787 14.0207L13.7278 17.9706L16.5562 15.1421ZM15.142 13.7279L13.7278 15.1421L16.5562 17.9706L17.9704 16.5563L15.142 13.7279ZM11.1921 12.6065L15.142 16.5563L17.9704 13.7279L14.0205 9.77804L11.1921 12.6065Z" fill="white" mask="url(#path-1-inside-1_1_46)"/>
</svg>
